<svg version="1.1" id="Capa_1" xmlns="http://www.w3.org/2000/svg" xmlns:xlink="http://www.w3.org/1999/xlink" x="0px" y="0px"
	 viewBox="0 0 512 512" style="enable-background:new 0 0 512 512;" xml:space="preserve">
	<g>
		<path style="fill:#FD003A;" d="M256.002,512c-4.722,0-9.168-2.222-12.001-6c-22.843-30.454-42.806-56.771-60.419-79.991
			C82.115,292.248,61,264.412,61,195C61,87.477,148.477,0,256,0s195,87.477,195,195c0,69.292-21.166,97.209-122.876,231.36
			c-17.537,23.131-37.414,49.348-60.123,79.638C265.169,509.776,260.724,512,256.002,512z M256,30c-90.981,0-165,74.019-165,165
			c0,59.321,17.784,82.766,116.482,212.879c14.483,19.093,30.553,40.278,48.515,64.146c17.838-23.715,33.817-44.791,48.222-63.789
			C403.17,277.722,421,254.205,421,195C421,104.019,346.981,30,256,30z"/>
		<path style="fill:#FD003A;" d="M256,300c-57.897,0-105-47.103-105-105S198.103,90,256,90s105,47.103,105,105S313.897,300,256,300z
			M256,120c-41.355,0-75,33.645-75,75s33.645,75,75,75s75-33.645,75-75S297.355,120,256,120z"/>
	</g>
</svg>
